<?xml version="1.0" encoding="utf-8"?>
<svg viewBox="47.86 0 1435.8 335.02" width="1435.8px" height="335.02px" xmlns="http://www.w3.org/2000/svg"><defs/><rect x="47.86" width="335.02" height="335.02" style="fill: rgb(255, 225, 0);"/><path d="M 143.58 239.3 L 191.44 239.3 L 191.44 287.16 L 143.58 287.16 L 143.58 239.3 Z M 191.44 191.44 L 239.3 191.44 L 239.3 239.3 L 191.44 239.3 L 191.44 191.44 Z M 239.3 143.58 L 287.16 143.58 L 287.16 191.44 L 239.3 191.44 L 239.3 143.58 Z M 191.44 95.72 L 239.3 95.72 L 239.3 143.58 L 191.44 143.58 L 191.44 95.72 Z M 143.58 47.86 L 191.44 47.86 L 191.44 95.72 L 143.58 95.72 L 143.58 47.86 Z" style=""/><path d="M 546.12 98.63 L 584.02 98.63 L 584.02 195.75 Q 583.96 209.58 577.07 220.06 Q 570.19 230.54 558.12 236.39 Q 546.05 242.23 530.34 242.23 Q 516.72 242.23 505.44 237.5 Q 494.16 232.76 487.45 222.55 Q 480.74 212.35 480.81 196.03 L 519.28 196.03 Q 519.48 201.35 521.11 205.02 Q 522.73 208.68 525.67 210.52 Q 528.61 212.35 532.83 212.35 Q 537.12 212.35 540.06 210.48 Q 543 208.62 544.52 204.91 Q 546.05 201.21 546.12 195.75 Z M 673.75 142.9 Q 673.2 135.98 668.6 132.11 Q 664 128.23 654.66 128.23 Q 648.71 128.23 644.94 129.65 Q 641.17 131.07 639.37 133.49 Q 637.57 135.91 637.5 139.02 Q 637.36 141.58 638.44 143.62 Q 639.51 145.67 641.86 147.29 Q 644.21 148.92 647.88 150.23 Q 651.55 151.55 656.6 152.58 L 668.22 155.07 Q 679.98 157.56 688.35 161.64 Q 696.72 165.73 702.04 171.23 Q 707.37 176.73 709.9 183.57 Q 712.42 190.42 712.49 198.52 Q 712.42 212.49 705.5 222.17 Q 698.59 231.86 685.75 236.91 Q 672.92 241.96 654.94 241.96 Q 636.47 241.96 622.73 236.49 Q 609 231.03 601.43 219.65 Q 593.85 208.27 593.78 190.49 L 630.31 190.49 Q 630.65 196.99 633.56 201.42 Q 636.47 205.85 641.76 208.13 Q 647.05 210.41 654.38 210.41 Q 660.54 210.41 664.69 208.89 Q 668.84 207.37 670.98 204.67 Q 673.13 201.97 673.2 198.52 Q 673.13 195.26 671.09 192.81 Q 669.05 190.35 664.41 188.38 Q 659.78 186.41 651.89 184.68 L 637.78 181.64 Q 618.96 177.56 608.14 167.97 Q 597.31 158.39 597.38 141.79 Q 597.31 128.3 604.61 118.17 Q 611.91 108.03 624.88 102.36 Q 637.85 96.69 654.66 96.69 Q 671.81 96.69 684.34 102.43 Q 696.86 108.17 703.67 118.58 Q 710.48 128.99 710.55 142.9 Z M 722.53 240.3 L 722.53 212.63 L 775.39 168.91 Q 780.64 164.55 784.41 160.71 Q 788.18 156.87 790.22 152.79 Q 792.26 148.71 792.26 143.73 Q 792.26 138.26 789.95 134.39 Q 787.63 130.52 783.55 128.41 Q 779.47 126.3 774.14 126.3 Q 768.81 126.3 764.77 128.44 Q 760.72 130.58 758.51 134.74 Q 756.29 138.89 756.29 144.83 L 719.77 144.83 Q 719.77 129.89 726.48 119.1 Q 733.19 108.31 745.43 102.5 Q 757.68 96.69 774.14 96.69 Q 791.16 96.69 803.64 102.12 Q 816.13 107.55 822.94 117.37 Q 829.76 127.2 829.76 140.41 Q 829.76 148.57 826.37 156.63 Q 822.98 164.69 814.19 174.44 Q 805.41 184.2 789.22 197.69 L 775.94 208.75 L 775.94 209.58 L 831.28 209.58 L 831.28 240.3 Z M 881.99 98.63 L 911.04 198.52 L 912.15 198.52 L 941.2 98.63 L 984.65 98.63 L 937.88 240.3 L 885.31 240.3 L 838.55 98.63 Z M 993.86 240.3 L 993.86 134.04 L 1032.05 134.04 L 1032.05 240.3 Z M 1012.99 122.98 Q 1005.21 122.98 999.67 117.85 Q 994.14 112.73 994.14 105.54 Q 994.14 98.35 999.68 93.23 Q 1005.23 88.11 1012.95 88.11 Q 1020.77 88.11 1026.27 93.23 Q 1031.77 98.35 1031.77 105.55 Q 1031.77 112.74 1026.27 117.86 Q 1020.77 122.98 1012.99 122.98 Z M 1084.97 241.68 Q 1073.63 241.68 1064.12 235.73 Q 1054.6 229.78 1048.9 217.68 Q 1043.19 205.57 1043.19 187.17 Q 1043.19 167.94 1049.17 155.9 Q 1055.16 143.87 1064.67 138.26 Q 1074.18 132.66 1084.7 132.66 Q 1092.58 132.66 1098.53 135.39 Q 1104.48 138.12 1108.49 142.66 Q 1112.5 147.19 1114.58 152.58 L 1115.13 152.58 L 1115.13 98.63 L 1153.32 98.63 L 1153.32 240.3 L 1115.41 240.3 L 1115.41 222.87 L 1114.58 222.87 Q 1112.37 228.26 1108.25 232.52 Q 1104.13 236.77 1098.29 239.23 Q 1092.44 241.68 1084.97 241.68 Z M 1099.08 212.35 Q 1104.34 212.35 1108.11 209.27 Q 1111.88 206.19 1113.92 200.56 Q 1115.96 194.92 1115.96 187.17 Q 1115.96 179.28 1113.92 173.65 Q 1111.88 168.01 1108.11 165 Q 1104.34 161.99 1099.08 161.99 Q 1093.83 161.99 1090.13 165 Q 1086.43 168.01 1084.45 173.65 Q 1082.48 179.28 1082.48 187.17 Q 1082.48 195.06 1084.45 200.69 Q 1086.43 206.33 1090.13 209.34 Q 1093.83 212.35 1099.08 212.35 Z M 1218.15 242.23 Q 1201.14 242.23 1188.86 235.7 Q 1176.58 229.16 1169.97 216.88 Q 1163.36 204.6 1163.36 187.45 Q 1163.36 170.98 1170.01 158.67 Q 1176.65 146.36 1188.75 139.51 Q 1200.86 132.66 1217.32 132.66 Q 1229.36 132.66 1239.11 136.4 Q 1248.87 140.13 1255.78 147.22 Q 1262.7 154.31 1266.44 164.41 Q 1270.17 174.51 1270.17 187.17 L 1270.17 196.03 L 1175.26 196.03 L 1175.26 175 L 1235.03 175 Q 1234.96 170.43 1232.71 166.94 Q 1230.47 163.44 1226.7 161.47 Q 1222.93 159.5 1218.15 159.5 Q 1213.52 159.5 1209.64 161.47 Q 1205.77 163.44 1203.45 166.9 Q 1201.14 170.36 1201 175 L 1201 197.69 Q 1201 202.8 1203.14 206.82 Q 1205.29 210.83 1209.3 213.11 Q 1213.31 215.39 1218.98 215.39 Q 1222.93 215.39 1226.21 214.29 Q 1229.5 213.18 1231.85 211.07 Q 1234.2 208.96 1235.31 205.99 L 1270.17 205.99 Q 1268.37 217.05 1261.66 225.18 Q 1254.95 233.31 1243.92 237.77 Q 1232.89 242.23 1218.15 242.23 Z M 1331.95 242.23 Q 1314.66 242.23 1302.35 235.35 Q 1290.03 228.47 1283.46 216.12 Q 1276.89 203.77 1276.89 187.45 Q 1276.89 171.12 1283.46 158.77 Q 1290.03 146.43 1302.35 139.54 Q 1314.66 132.66 1331.95 132.66 Q 1349.25 132.66 1361.56 139.54 Q 1373.87 146.43 1380.45 158.77 Q 1387.02 171.12 1387.02 187.45 Q 1387.02 203.77 1380.45 216.12 Q 1373.87 228.47 1361.56 235.35 Q 1349.25 242.23 1331.95 242.23 Z M 1332.23 214.01 Q 1337.07 214.01 1340.6 210.76 Q 1344.13 207.51 1346.07 201.49 Q 1348 195.47 1348 187.17 Q 1348 178.8 1346.07 172.82 Q 1344.13 166.83 1340.6 163.58 Q 1337.07 160.33 1332.23 160.33 Q 1327.11 160.33 1323.45 163.58 Q 1319.78 166.83 1317.84 172.82 Q 1315.91 178.8 1315.91 187.17 Q 1315.91 195.47 1317.84 201.49 Q 1319.78 207.51 1323.45 210.76 Q 1327.11 214.01 1332.23 214.01 Z" style="fill: rgb(255, 255, 255);"/></svg>