<?xml version="1.0" encoding="utf-8"?>
<svg viewBox="47.86 0 1196.5 335.02" width="1100.78px" height="335.02px" preserveAspectRatio="none" xmlns="http://www.w3.org/2000/svg"><defs/><rect x="143.58" y="95.72" width="47.86" height="47.86" style=""/><rect x="191.44" y="143.58" width="47.86" height="47.86" style=""/><rect x="143.58" y="191.44" width="47.86" height="47.86" style=""/><rect x="95.72" y="47.86" width="47.86" height="47.86" style=""/><rect x="95.72" y="239.3" width="47.86" height="47.86" style=""/><path d="M 354.45 98.63 L 392.36 98.63 L 392.36 195.75 Q 392.29 209.58 385.41 220.06 Q 378.53 230.54 366.46 236.39 Q 354.39 242.23 338.68 242.23 Q 325.06 242.23 313.78 237.5 Q 302.5 232.76 295.79 222.55 Q 289.08 212.35 289.15 196.03 L 327.61 196.03 Q 327.82 201.35 329.45 205.02 Q 331.07 208.68 334.01 210.52 Q 336.95 212.35 341.17 212.35 Q 345.46 212.35 348.4 210.48 Q 351.34 208.62 352.86 204.91 Q 354.39 201.21 354.45 195.75 Z M 482.09 142.9 Q 481.53 135.98 476.93 132.11 Q 472.33 128.23 463 128.23 Q 457.05 128.23 453.28 129.65 Q 449.51 131.07 447.71 133.49 Q 445.91 135.91 445.84 139.02 Q 445.7 141.58 446.77 143.62 Q 447.85 145.67 450.2 147.29 Q 452.55 148.92 456.22 150.23 Q 459.88 151.55 464.93 152.58 L 476.55 155.07 Q 488.31 157.56 496.68 161.64 Q 505.05 165.73 510.38 171.23 Q 515.71 176.73 518.23 183.57 Q 520.76 190.42 520.83 198.52 Q 520.76 212.49 513.84 222.17 Q 506.92 231.86 494.09 236.91 Q 481.26 241.96 463.27 241.96 Q 444.8 241.96 431.07 236.49 Q 417.34 231.03 409.76 219.65 Q 402.19 208.27 402.12 190.49 L 438.65 190.49 Q 438.99 196.99 441.9 201.42 Q 444.8 205.85 450.09 208.13 Q 455.39 210.41 462.72 210.41 Q 468.88 210.41 473.03 208.89 Q 477.18 207.37 479.32 204.67 Q 481.47 201.97 481.53 198.52 Q 481.47 195.26 479.42 192.81 Q 477.38 190.35 472.75 188.38 Q 468.11 186.41 460.23 184.68 L 446.12 181.64 Q 427.3 177.56 416.47 167.97 Q 405.65 158.39 405.72 141.79 Q 405.65 128.3 412.95 118.17 Q 420.24 108.03 433.21 102.36 Q 446.19 96.69 463 96.69 Q 480.15 96.69 492.67 102.43 Q 505.19 108.17 512.01 118.58 Q 518.82 128.99 518.89 142.9 Z M 530.87 240.3 L 530.87 212.63 L 583.72 168.91 Q 588.98 164.55 592.75 160.71 Q 596.52 156.87 598.56 152.79 Q 600.6 148.71 600.6 143.73 Q 600.6 138.26 598.28 134.39 Q 595.97 130.52 591.88 128.41 Q 587.8 126.3 582.48 126.3 Q 577.15 126.3 573.1 128.44 Q 569.06 130.58 566.84 134.74 Q 564.63 138.89 564.63 144.83 L 528.1 144.83 Q 528.1 129.89 534.81 119.1 Q 541.52 108.31 553.77 102.5 Q 566.01 96.69 582.48 96.69 Q 599.49 96.69 611.98 102.12 Q 624.47 107.55 631.28 117.37 Q 638.09 127.2 638.09 140.41 Q 638.09 148.57 634.7 156.63 Q 631.31 164.69 622.53 174.44 Q 613.74 184.2 597.56 197.69 L 584.27 208.75 L 584.27 209.58 L 639.62 209.58 L 639.62 240.3 Z M 690.33 98.63 L 719.38 198.52 L 720.49 198.52 L 749.55 98.63 L 792.99 98.63 L 746.23 240.3 L 693.65 240.3 L 646.89 98.63 Z M 802.2 240.3 L 802.2 134.04 L 840.38 134.04 L 840.38 240.3 Z M 821.32 122.98 Q 813.54 122.98 808.01 117.85 Q 802.47 112.73 802.47 105.54 Q 802.47 98.35 808.02 93.23 Q 813.56 88.11 821.29 88.11 Q 829.11 88.11 834.6 93.23 Q 840.1 98.35 840.1 105.55 Q 840.1 112.74 834.6 117.86 Q 829.11 122.98 821.32 122.98 Z M 893.31 241.68 Q 881.97 241.68 872.46 235.73 Q 862.95 229.78 857.24 217.68 Q 851.53 205.57 851.53 187.17 Q 851.53 167.94 857.52 155.9 Q 863.5 143.87 873.01 138.26 Q 882.52 132.66 893.04 132.66 Q 900.92 132.66 906.87 135.39 Q 912.82 138.12 916.83 142.66 Q 920.85 147.19 922.92 152.58 L 923.48 152.58 L 923.48 98.63 L 961.66 98.63 L 961.66 240.3 L 923.75 240.3 L 923.75 222.87 L 922.92 222.87 Q 920.71 228.26 916.59 232.52 Q 912.48 236.77 906.63 239.23 Q 900.79 241.68 893.31 241.68 Z M 907.43 212.35 Q 912.68 212.35 916.45 209.27 Q 920.22 206.19 922.26 200.56 Q 924.31 194.92 924.31 187.17 Q 924.31 179.28 922.26 173.65 Q 920.22 168.01 916.45 165 Q 912.68 161.99 907.43 161.99 Q 902.17 161.99 898.47 165 Q 894.77 168.01 892.8 173.65 Q 890.82 179.28 890.82 187.17 Q 890.82 195.06 892.8 200.69 Q 894.77 206.33 898.47 209.34 Q 902.17 212.35 907.43 212.35 Z M 1026.49 242.23 Q 1009.47 242.23 997.19 235.7 Q 984.91 229.16 978.31 216.88 Q 971.7 204.6 971.7 187.45 Q 971.7 170.98 978.34 158.67 Q 984.98 146.36 997.09 139.51 Q 1009.19 132.66 1025.66 132.66 Q 1037.69 132.66 1047.45 136.4 Q 1057.2 140.13 1064.12 147.22 Q 1071.04 154.31 1074.77 164.41 Q 1078.51 174.51 1078.51 187.17 L 1078.51 196.03 L 983.6 196.03 L 983.6 175 L 1043.37 175 Q 1043.3 170.43 1041.05 166.94 Q 1038.8 163.44 1035.03 161.47 Q 1031.26 159.5 1026.49 159.5 Q 1021.85 159.5 1017.98 161.47 Q 1014.11 163.44 1011.79 166.9 Q 1009.47 170.36 1009.33 175 L 1009.33 197.69 Q 1009.33 202.8 1011.48 206.82 Q 1013.62 210.83 1017.63 213.11 Q 1021.65 215.39 1027.32 215.39 Q 1031.26 215.39 1034.55 214.29 Q 1037.83 213.18 1040.18 211.07 Q 1042.54 208.96 1043.64 205.99 L 1078.51 205.99 Q 1076.71 217.05 1070 225.18 Q 1063.29 233.31 1052.26 237.77 Q 1041.22 242.23 1026.49 242.23 Z M 1140.29 242.23 Q 1123 242.23 1110.68 235.35 Q 1098.37 228.47 1091.8 216.12 Q 1085.23 203.77 1085.23 187.45 Q 1085.23 171.12 1091.8 158.77 Q 1098.37 146.43 1110.68 139.54 Q 1123 132.66 1140.29 132.66 Q 1157.58 132.66 1169.9 139.54 Q 1182.21 146.43 1188.78 158.77 Q 1195.35 171.12 1195.35 187.45 Q 1195.35 203.77 1188.78 216.12 Q 1182.21 228.47 1169.9 235.35 Q 1157.58 242.23 1140.29 242.23 Z M 1140.57 214.01 Q 1145.41 214.01 1148.94 210.76 Q 1152.47 207.51 1154.4 201.49 Q 1156.34 195.47 1156.34 187.17 Q 1156.34 178.8 1154.4 172.82 Q 1152.47 166.83 1148.94 163.58 Q 1145.41 160.33 1140.57 160.33 Q 1135.45 160.33 1131.78 163.58 Q 1128.12 166.83 1126.18 172.82 Q 1124.24 178.8 1124.24 187.17 Q 1124.24 195.47 1126.18 201.49 Q 1128.12 207.51 1131.78 210.76 Q 1135.45 214.01 1140.57 214.01 Z" style="fill: rgb(51, 51, 51);"/></svg>