<?xml version="1.0" encoding="utf-8"?>
<svg fill="none" viewBox="0 0 1080 1080" xmlns="http://www.w3.org/2000/svg">
  <path d="M -100 1052.115 C 4.098 843.969 10.291 877.683 100 825.898 C 146.611 798.991 53.93 669.301 200 669.231 C 315.985 669.176 271.718 594.775 243.262 537.641 C 215.041 480.978 284.399 464.165 327.842 438.516 C 395.184 398.756 331.051 301.285 440.729 248.149 C 504.946 217.037 541.307 198.189 562.163 100 C 586.097 -12.678 657.706 31.792 845.549 132.196 C 956.759 191.639 1074.91 147.574 1200 0" transform="matrix(1, 0, 0, 1, 1.1368683772161603e-13, 0)"/>
  <path d="M 0 1200 C 200 1066.846 189.678 887.177 258.114 800 C 302.976 742.854 383.013 755.861 400 800 C 411.23 829.18 382.434 865.252 300 861.822 C 116.614 854.192 293.252 673.001 363.765 600 C 421.937 539.775 570.671 472.87 478.426 393.246 C 425.61 347.656 590.551 249.02 641.784 175.352 C 719.981 62.913 778.668 -39.638 762.864 -75.955" transform="matrix(1, 0, 0, 1, 1.1368683772161603e-13, 0)"/>
  <path d="M -100 1142.369 C 35.267 1122.639 107.663 788.648 700 400 C 800 264.407 628.16 190.912 566.504 228.798 C 544.157 242.53 544.116 288.972 600 300 C 664.544 312.737 697.877 256.018 700 129.843 C 701.238 56.252 767.905 25.065 900 36.281 C 961.326 41.488 1012.93 7.948 1054.814 -64.338" transform="matrix(1, 0, 0, 1, 1.1368683772161603e-13, 0)"/>
  <path d="M 1260.013 1100 C 1038.766 1044.374 601.043 849.153 471.531 636.044 C 405.464 527.331 913.854 349.69 371.531 267.737 C 219.765 244.803 166.422 463.529 264.236 356.704 C 364.236 247.491 156.708 -69.146 156.708 -69.146" transform="matrix(1, 0, 0, 1, 1.1368683772161603e-13, 0)"/>
  <path d="M 1200 1000 C 1138.265 1000 1026.675 813.858 920.185 885.081 C 861.796 924.133 863.202 813.206 835.739 800 C 804.974 785.206 761.545 848.35 727.837 764.589 C 677.007 638.28 582.572 594.868 527.967 624.683 C 424.734 681.048 95.071 301.657 226.739 277.504 C 446.466 237.198 -18.176 148.33 -70.395 42.521" transform="matrix(1, 0, 0, 1, 1.1368683772161603e-13, 0)"/>
  <path d="M 1100 1162.911 C 990.583 1103.423 982.475 996.722 800 1040.001 C 738.945 1054.482 742.482 899.061 668.406 936.477 C 553.013 994.762 516.783 772.771 519.136 725.441 C 525.501 597.408 811.584 671.508 864.227 563.182 C 903.697 481.963 897.408 322.619 800 300 C 702.534 277.367 759.503 496.084 830.873 400 C 930.822 265.442 650.75 -47.215 234.182 96.115 C 50.265 159.396 350.366 -1.059 -149.634 -68.622" transform="matrix(1, 0, 0, 1, 1.1368683772161603e-13, 0)"/>
  <path d="M 22.656 1111.431 C -45.361 1011.697 297.988 912.746 438.499 671.526 C 522.717 526.946 420.796 388.753 746.94 400 C 803.628 401.955 821.315 348.061 800 238.319 C 775.806 113.754 833.978 0.981 974.516 -100" transform="matrix(1, 0, 0, 1, 1.1368683772161603e-13, 0)"/>
  <path d="M 1091.979 1116.972 C 1084.958 1095.772 1033.18 973.907 969.666 970.517 C 887.185 966.114 945.27 709.148 863.097 700 C 754.935 687.958 723.23 604.274 742.223 520.022 C 771.62 389.616 753.899 268.575 542.626 349.324 C 397.135 404.931 642.553 787.421 676.572 -62.868" transform="matrix(1, 0, 0, 1, 1.1368683772161603e-13, 0)"/>
</svg>